<?xml version="1.0" standalone="no"?>
<!DOCTYPE svg PUBLIC "-//W3C//DTD SVG 20010904//EN"
 "http://www.w3.org/TR/2001/REC-SVG-20010904/DTD/svg10.dtd">
<svg version="1.0" xmlns="http://www.w3.org/2000/svg"
 width="1200.000000pt" height="1119.000000pt" viewBox="0 0 1200.000000 1119.000000"
 preserveAspectRatio="xMidYMid meet">
<metadata>
Created by potrace 1.16, written by Peter Selinger 2001-2019
</metadata>
<g transform="translate(0.000000,1119.000000) scale(0.100000,-0.100000)"
fill="#000000" stroke="none">
<path d="M5650 11134 c-19 -2 -91 -9 -160 -14 -979 -84 -1964 -461 -2767
-1061 -266 -199 -578 -479 -628 -564 -61 -104 -70 -254 -22 -359 l24 -52 -55
-29 c-142 -75 -260 -166 -304 -234 -15 -25 -40 -83 -54 -130 -15 -50 -66 -163
-122 -271 l-97 -185 -2 -128 -1 -128 -51 -41 c-96 -78 -204 -232 -250 -358
-40 -109 -54 -191 -57 -336 l-2 -141 -125 -161 c-220 -284 -440 -599 -571
-820 -81 -138 -251 -484 -261 -532 -14 -66 -7 -175 16 -234 27 -73 124 -179
217 -237 232 -146 439 -367 525 -561 14 -31 34 -61 44 -66 23 -13 202 -34 215
-26 6 4 24 -7 41 -23 71 -66 179 -109 310 -122 135 -13 148 9 59 97 -39 38
-70 83 -96 135 -37 75 -38 79 -20 92 58 43 452 195 506 195 24 0 81 -32 120
-68 25 -23 26 -25 12 -64 -40 -113 -60 -316 -45 -453 l11 -100 -64 -66 c-35
-37 -79 -92 -96 -123 -18 -31 -36 -58 -40 -61 -10 -6 -60 124 -85 220 -21 80
-34 100 -63 91 -43 -14 -112 -235 -112 -360 l0 -66 -34 0 c-44 0 -83 -32 -96
-78 -5 -20 -15 -96 -22 -169 -20 -220 8 -395 80 -501 43 -64 500 -520 542
-542 l39 -20 -27 -57 c-24 -52 -27 -70 -27 -163 0 -99 2 -110 33 -171 25 -52
55 -89 137 -167 807 -778 1898 -1306 3010 -1457 66 -9 130 -18 142 -21 15 -3
34 -26 60 -77 55 -106 164 -212 273 -265 110 -54 184 -72 295 -72 187 0 321
56 456 190 63 62 95 103 119 153 18 37 36 67 39 67 32 0 384 57 498 80 914
186 1765 604 2480 1216 213 183 295 269 336 355 57 119 60 232 8 340 l-20 40
32 14 c85 35 114 69 178 203 163 341 178 368 246 444 91 100 116 158 111 251
-3 55 -11 88 -36 141 l-32 68 16 60 c20 78 19 219 -2 306 -24 98 -63 176 -91
180 -26 4 -29 -2 -68 -133 -15 -49 -40 -118 -56 -153 -34 -76 -35 -75 -131 27
-153 161 -238 387 -242 638 l-1 106 40 14 c85 30 182 44 302 44 179 0 253 -16
322 -67 6 -5 -69 -132 -108 -182 -22 -27 -56 -59 -76 -72 -29 -18 -35 -28 -33
-49 4 -34 26 -37 149 -16 110 18 206 48 289 90 43 22 69 28 130 29 114 3 151
24 305 175 71 70 224 205 338 300 114 95 232 196 261 226 142 141 150 297 28
549 -135 278 -466 827 -675 1117 -41 58 -82 128 -91 157 -10 30 -23 121 -30
211 -15 181 -12 173 -129 329 -85 113 -235 326 -299 427 l-46 70 10 65 c12 85
3 216 -22 314 -42 166 -146 325 -283 434 -40 31 -131 92 -202 134 -72 42 -136
81 -143 86 -10 7 -5 21 23 61 76 114 87 267 28 393 -35 75 -139 181 -363 373
-876 751 -1980 1205 -3149 1295 -121 9 -684 12 -771 4z m735 -224 c690 -50
1332 -225 1950 -530 472 -233 853 -493 1247 -853 136 -125 159 -154 165 -212
8 -68 -12 -110 -96 -198 l-76 -80 5 -61 c10 -142 4 -280 -14 -336 -69 -208
-229 -370 -427 -431 -84 -26 -200 -34 -287 -19 -40 6 -84 9 -97 6 -13 -3 -60
-40 -104 -80 -141 -132 -184 -129 -354 29 -665 618 -1508 939 -2387 912 -481
-15 -912 -122 -1345 -331 -330 -160 -561 -318 -849 -580 -129 -118 -165 -135
-238 -115 -31 8 -63 31 -121 87 -77 75 -80 77 -125 75 -228 -10 -286 -7 -368
20 -298 98 -482 398 -434 706 7 44 9 92 6 107 -4 15 -38 59 -76 99 -100 103
-119 159 -80 240 30 61 290 296 540 487 821 625 1788 986 2850 1061 112 8 589
6 715 -3z m-4117 -1923 c7 -8 8 -35 2 -82 -5 -39 -9 -75 -10 -81 0 -11 -169
-90 -255 -120 -39 -14 -43 -20 -123 -179 -62 -126 -78 -165 -66 -165 40 0 99
-27 141 -64 44 -39 103 -140 103 -178 0 -34 19 -26 64 27 51 59 183 168 241
199 33 18 37 18 52 4 14 -15 9 -22 -53 -81 -72 -68 -129 -151 -140 -202 -5
-27 -2 -32 29 -47 l35 -17 83 55 c92 62 190 114 214 114 23 0 99 -51 89 -59
-5 -4 -47 -33 -94 -63 -47 -31 -97 -69 -113 -85 l-27 -29 28 -27 c26 -25 29
-26 67 -12 58 21 124 19 163 -5 60 -37 96 -161 73 -248 -24 -88 -132 -167
-245 -179 -43 -4 -56 -10 -56 -22 1 -25 37 -100 70 -141 l30 -38 -23 -14 c-76
-49 -216 -70 -317 -49 -30 6 -125 45 -210 86 -85 40 -184 81 -220 90 -120 31
-373 0 -405 -49 -8 -12 -22 -53 -32 -90 -13 -55 -14 -78 -6 -120 l11 -51 -47
-50 c-25 -27 -56 -72 -68 -100 -12 -27 -33 -76 -47 -107 -13 -32 -46 -81 -73
-109 l-48 -52 74 7 c147 13 305 85 420 191 l59 55 48 -27 c39 -22 61 -28 109
-27 87 1 156 36 252 127 l78 75 48 -26 c136 -71 298 -66 467 13 l75 36 -35
-30 c-79 -69 -235 -130 -373 -146 l-57 -6 59 -72 c59 -72 134 -187 127 -194
-2 -3 -23 7 -45 22 -53 33 -199 81 -275 91 l-59 7 7 -39 c12 -61 55 -159 97
-219 l38 -55 -50 26 c-28 14 -81 32 -118 40 -100 21 -261 17 -261 -7 0 -5 44
-53 98 -107 148 -150 304 -242 465 -274 l67 -14 -68 -33 c-77 -36 -148 -90
-135 -101 4 -4 32 -15 61 -25 42 -13 76 -16 150 -13 54 3 106 8 117 13 l20 7
-20 -14 c-11 -9 -82 -47 -158 -86 -124 -64 -136 -72 -112 -78 51 -13 247 4
353 31 57 14 105 25 108 25 2 0 4 -28 4 -62 0 -70 -22 -173 -45 -219 l-16 -29
-78 55 c-73 51 -154 94 -208 110 -22 6 -21 3 12 -67 19 -40 41 -100 50 -133
19 -74 20 -227 1 -288 -13 -43 -12 -47 8 -65 52 -48 142 -72 271 -72 l84 0 11
-42 c84 -323 205 -628 339 -857 17 -29 29 -56 26 -60 -2 -5 -26 -14 -52 -21
-68 -18 -71 -25 -24 -50 23 -11 56 -29 73 -40 l31 -18 -129 -41 c-71 -22 -153
-46 -183 -53 l-54 -12 53 -48 c30 -26 52 -49 49 -51 -30 -24 -270 -106 -352
-121 l-68 -12 46 -34 c25 -18 45 -37 45 -41 0 -11 -168 -32 -210 -26 l-39 5
-6 -57 c-10 -88 -6 -84 -93 -79 -43 3 -91 12 -108 21 -31 16 -32 16 -38 -6 -3
-12 -6 -32 -6 -44 0 -13 -4 -23 -8 -23 -22 0 -130 42 -154 60 l-27 20 6 -53
c3 -28 11 -86 18 -127 l12 -75 -59 65 c-33 36 -86 100 -119 144 l-60 79 6 -54
c13 -104 47 -255 70 -314 14 -32 23 -61 21 -63 -3 -2 -22 21 -45 50 -80 106
-122 235 -136 412 l-7 89 23 -7 c89 -25 123 -28 183 -16 33 7 74 19 90 27 16
8 59 16 95 18 78 3 133 27 178 78 l31 35 104 4 c97 3 109 6 180 41 52 25 91
54 122 88 25 28 46 55 46 60 0 5 6 9 13 9 6 0 41 14 77 31 78 36 152 105 187
174 26 50 26 51 14 154 -29 251 -129 516 -243 643 -30 35 -40 39 -122 53 -113
19 -351 19 -476 0 -273 -41 -578 -155 -845 -315 l-80 -48 -82 10 -82 10 -44
77 c-59 101 -121 184 -201 268 l-65 69 32 12 c25 9 38 25 61 73 52 113 168
201 302 229 l52 11 4 127 c4 90 11 145 26 190 23 72 25 72 -69 -13 -55 -51
-57 -51 -151 -64 -242 -31 -468 -118 -598 -228 -21 -18 -42 -33 -47 -33 -5 0
-20 23 -34 52 -35 76 -34 165 5 238 16 30 56 111 91 180 149 299 427 714 753
1124 l95 120 2 175 c1 154 4 185 24 246 50 153 140 283 257 373 36 28 70 52
76 54 7 3 8 40 1 128 l-10 125 53 100 c48 91 173 376 205 467 11 33 25 45 106
90 52 29 135 83 186 120 51 37 95 67 98 67 4 1 11 -5 17 -12z m4101 -193 c904
-105 1724 -625 2216 -1404 80 -126 220 -409 268 -540 85 -230 138 -444 174
-700 24 -174 24 -576 0 -750 -52 -373 -135 -647 -297 -975 -390 -792 -1112
-1379 -1965 -1595 -281 -71 -462 -94 -765 -93 -241 0 -389 14 -605 58 -1053
212 -1937 996 -2274 2015 -110 335 -154 610 -154 970 1 369 49 657 169 1002
294 845 963 1527 1804 1841 457 171 938 228 1429 171z m3638 -529 c35 -44 80
-113 100 -153 50 -99 101 -132 207 -132 l51 0 19 -48 c35 -87 110 -206 164
-262 35 -36 66 -83 92 -137 49 -104 90 -165 157 -230 l53 -51 0 -87 c0 -187
31 -306 107 -412 285 -397 684 -1069 753 -1268 11 -32 20 -80 20 -107 l0 -50
-51 42 -50 43 -28 -27 -28 -27 -38 31 c-101 80 -231 131 -340 133 l-70 2 -124
-80 -123 -79 83 -21 c179 -43 276 -144 314 -321 25 -116 26 -111 -84 -208 -55
-48 -127 -116 -160 -152 -79 -84 -113 -104 -177 -104 -95 0 -183 44 -394 200
-156 115 -177 126 -314 158 -102 24 -129 26 -326 27 -175 0 -230 -3 -295 -19
-120 -28 -234 -72 -315 -122 -40 -24 -74 -43 -75 -42 -1 2 7 31 18 66 22 72
30 78 179 130 141 50 281 74 483 81 l180 6 -70 13 c-113 20 -252 32 -381 32
l-122 0 -31 35 c-17 19 -33 35 -37 35 -4 0 -33 -18 -66 -40 -33 -22 -62 -40
-65 -40 -4 0 3 46 14 84 5 18 118 77 176 91 15 4 27 10 27 14 0 3 15 54 34
113 l34 106 -109 53 -109 53 0 63 c0 77 -18 79 194 -18 83 -38 151 -69 152
-69 1 0 4 19 7 41 9 70 71 119 187 150 l45 12 -50 9 c-63 11 -471 86 -507 94
-24 5 -28 10 -28 40 l0 35 103 -8 c56 -4 185 -8 287 -7 227 1 355 22 507 83
66 26 159 84 123 76 -62 -13 -214 -25 -315 -24 l-110 0 64 29 c94 44 218 130
286 199 63 65 64 69 11 47 -88 -37 -334 -71 -424 -59 l-42 6 109 65 c118 69
263 179 280 211 10 18 1 16 -92 -15 -177 -61 -422 -115 -510 -114 -13 1 24 24
83 53 102 51 214 120 226 138 7 12 -45 11 -185 -2 -62 -6 -115 -9 -116 -7 -2
2 14 31 36 65 43 69 45 73 26 73 -19 0 -184 83 -237 119 -87 59 -179 161 -221
245 -56 112 -55 114 32 103 39 -5 72 -7 75 -4 2 2 -1 28 -7 58 -17 73 -17 261
-1 330 17 74 67 155 120 196 l43 32 -38 19 c-21 11 -82 34 -135 51 -54 18 -98
35 -98 38 0 11 305 -6 357 -20 49 -13 51 -13 43 4 -17 31 -93 89 -160 122 -60
30 -63 32 -36 35 87 10 324 -30 364 -61 7 -5 14 -8 17 -6 6 6 -92 149 -128
188 -31 32 -31 33 -7 26 67 -20 182 -90 252 -153 33 -30 42 -33 74 -27 l36 6
-7 47 c-9 60 -51 195 -77 245 l-19 38 32 -23 c17 -13 60 -59 96 -103z m-1002
-712 c30 -55 55 -85 105 -127 l35 -29 -67 5 c-121 10 -172 65 -173 188 0 36 6
94 14 129 l15 65 22 -92 c12 -50 34 -113 49 -139z m-7345 -450 c27 -67 78
-150 108 -177 36 -31 47 -17 44 56 -6 118 31 189 92 174 20 -5 24 -13 29 -62
15 -142 -31 -233 -117 -234 -77 0 -153 65 -201 173 -37 84 -39 106 -13 117 13
5 26 9 29 9 3 1 16 -25 29 -56z m845 -2359 c8 -4 23 -20 31 -36 15 -29 14 -33
-38 -136 l-53 -105 3 -151 c2 -149 2 -152 -26 -211 -66 -135 -184 -229 -230
-183 -22 22 -13 67 30 151 l42 82 -2 140 c-3 218 25 320 113 411 34 36 48 44
77 44 20 0 44 -3 53 -6z m7061 -84 c108 -53 134 -110 134 -299 1 -303 38 -450
144 -563 44 -48 27 -49 -63 -6 -91 43 -215 167 -261 262 -37 74 -42 127 -26
239 l9 57 -49 43 c-108 94 -135 133 -136 198 0 29 6 47 23 65 49 52 125 53
225 4z m-8092 -239 c24 -26 20 -33 -16 -26 -91 19 -228 88 -228 115 0 4 32 29
72 54 l71 46 43 -85 c23 -47 49 -94 58 -104z m9278 55 c-15 -26 -295 -126
-310 -111 -3 2 9 21 26 42 16 21 46 68 66 104 l36 66 94 -46 c51 -25 91 -50
88 -55z m-1769 -199 c-10 -201 24 -262 217 -390 119 -79 377 -208 525 -262
188 -70 314 -97 465 -101 l135 -4 22 -52 c41 -98 32 -128 -52 -168 -77 -37
-144 -107 -218 -228 -29 -47 -65 -98 -80 -114 -62 -61 -148 -20 -163 78 -10
71 11 199 57 336 21 65 39 120 39 122 0 2 -39 -9 -87 -24 -122 -39 -247 -63
-289 -56 -20 4 -41 17 -50 31 -19 29 -9 67 37 140 l30 48 -28 -6 c-15 -4 -80
-14 -143 -23 -135 -20 -186 -15 -200 21 -10 28 7 98 34 136 9 13 16 26 16 30
0 4 -30 -4 -66 -18 -127 -46 -237 -41 -250 12 -6 26 20 82 65 139 17 21 31 40
31 41 0 1 -30 -6 -67 -16 -115 -32 -193 -20 -193 30 0 9 27 60 59 114 32 54
81 143 107 197 27 55 50 99 51 100 1 0 -1 -51 -4 -113z m-7175 -440 c16 -34
46 -87 66 -117 34 -50 36 -55 20 -67 -27 -20 -118 -35 -156 -25 -41 10 -54 36
-68 130 -11 80 0 197 26 276 l17 49 33 -92 c18 -50 46 -120 62 -154z m8568 72
c17 -79 14 -177 -7 -248 -11 -37 -15 -41 -61 -50 -54 -12 -118 -14 -142 -5
-13 5 -7 18 29 68 51 72 104 179 131 265 10 33 22 56 27 52 4 -4 14 -41 23
-82z m-6770 -398 c17 -10 75 -62 130 -116 235 -231 530 -436 826 -574 357
-167 697 -265 1088 -313 158 -19 603 -16 760 5 406 56 719 153 1095 337 289
142 535 315 775 547 120 116 147 133 205 133 56 0 83 -16 176 -106 l90 -86 57
6 c166 17 209 18 282 2 246 -52 444 -250 496 -496 16 -73 15 -117 -2 -281 l-6
-57 72 -78 c86 -92 115 -149 105 -203 -11 -57 -37 -92 -172 -221 -791 -760
-1826 -1229 -2992 -1355 -80 -8 -146 -17 -148 -19 -2 -2 -10 -28 -18 -60 -46
-175 -174 -295 -353 -328 -75 -14 -168 0 -247 36 -61 28 -145 102 -182 160
-29 45 -63 139 -63 173 0 12 -3 23 -7 23 -5 0 -70 7 -146 15 -1040 110 -2002
507 -2753 1136 -155 129 -350 316 -383 366 -25 37 -31 57 -31 97 0 60 8 74
102 173 68 73 86 108 73 140 -15 39 -22 168 -14 236 13 104 44 188 101 272 63
95 140 163 242 215 136 68 229 79 444 54 l54 -7 71 71 c100 97 139 122 196
122 27 0 58 -8 77 -19z"/>
<path d="M5446 10649 c-88 -12 -220 -57 -292 -100 -122 -74 -239 -207 -291
-334 -54 -128 -57 -325 -9 -470 100 -298 350 -476 671 -476 170 -1 298 35 427
120 375 244 412 815 71 1096 -155 127 -375 190 -577 164z m218 -379 c73 -28
147 -99 182 -174 23 -52 26 -67 22 -140 -7 -134 -71 -235 -190 -298 -36 -19
-58 -23 -138 -23 -84 0 -101 3 -145 27 -162 86 -237 288 -162 440 34 70 110
140 180 167 71 27 179 28 251 1z"/>
<path d="M6855 10578 c-36 -99 -414 -1223 -411 -1225 2 -2 82 -30 179 -62
l175 -59 113 336 c61 186 114 340 118 344 3 4 74 -189 156 -427 l150 -435 173
-58 c108 -37 175 -55 178 -48 33 93 414 1230 412 1231 -8 6 -331 115 -342 115
-8 0 -56 -125 -127 -335 -63 -184 -116 -335 -119 -335 -3 0 -72 194 -155 430
l-150 430 -165 55 c-91 30 -169 55 -173 55 -4 0 -10 -6 -12 -12z"/>
<path d="M4047 10256 c-145 -61 -167 -74 -164 -91 5 -24 496 -1166 507 -1178
4 -5 84 24 178 64 l171 73 -13 30 c-93 221 -501 1163 -505 1167 -3 4 -82 -25
-174 -65z"/>
<path d="M8648 9726 c-114 -31 -221 -125 -284 -252 -67 -135 -44 -245 85 -407
124 -156 145 -211 99 -255 -35 -32 -70 -36 -120 -14 -80 35 -155 139 -188 261
-6 22 -13 41 -16 41 -18 0 -304 -157 -304 -167 0 -25 89 -184 139 -246 93
-118 248 -217 382 -247 89 -20 205 -9 275 25 80 39 183 145 226 232 29 60 33
77 33 149 0 73 -4 88 -37 155 -21 41 -65 108 -98 149 -98 120 -120 178 -83
215 27 27 102 15 151 -23 35 -28 89 -117 107 -175 4 -17 17 -12 112 39 60 31
127 68 151 82 l42 24 -29 52 c-105 182 -280 330 -432 365 -59 14 -154 12 -211
-3z"/>
<path d="M2867 9511 l-146 -119 412 -505 c227 -278 414 -506 417 -506 6 -1
590 474 593 483 3 7 -194 246 -203 246 -5 0 -75 -54 -156 -121 -118 -97 -149
-118 -159 -107 -7 7 -144 175 -305 373 -161 198 -296 364 -300 368 -4 4 -73
-46 -153 -112z"/>
<path d="M943 6488 c-102 -150 -228 -361 -321 -539 -45 -86 -82 -159 -82 -162
0 -4 26 -7 58 -7 73 0 182 49 182 81 0 81 97 396 188 612 28 64 49 117 48 117
-2 0 -34 -46 -73 -102z"/>
<path d="M1703 6320 c11 -204 128 -292 329 -249 l53 12 -52 22 c-108 48 -224
146 -303 255 l-32 45 5 -85z"/>
<path d="M2250 5585 c-1 -60 -5 -128 -9 -150 l-7 -40 -27 57 c-37 76 -98 150
-154 187 -26 17 -50 31 -53 31 -4 0 8 -38 27 -85 67 -166 79 -338 35 -470
l-20 -58 87 6 c96 5 170 27 218 63 27 20 33 33 43 95 19 114 -2 235 -65 358
-18 36 -42 77 -54 91 l-20 25 -1 -110z"/>
<path d="M1885 5543 c-274 -64 -696 -286 -882 -466 -44 -42 -56 -83 -28 -93
28 -11 61 5 130 66 149 130 341 246 644 391 193 92 222 110 181 108 -14 -1
-34 -3 -45 -6z"/>
<path d="M1880 5404 c-222 -60 -568 -251 -738 -409 -60 -55 -72 -73 -70 -94 5
-44 48 -31 126 39 144 128 294 225 568 367 220 113 241 131 114 97z"/>
<path d="M1785 5216 c-184 -67 -411 -198 -562 -326 -71 -60 -96 -101 -75 -122
17 -17 52 1 116 61 121 113 250 197 502 327 90 47 164 88 164 90 0 12 -66 -1
-145 -30z"/>
<path d="M5735 8530 c-655 -73 -1231 -346 -1685 -800 -427 -426 -692 -957
-785 -1570 -22 -148 -30 -456 -16 -619 85 -960 650 -1798 1503 -2232 316 -160
635 -253 992 -289 149 -16 511 -8 654 14 498 75 949 271 1342 582 119 95 361
340 451 459 288 378 464 778 546 1241 26 151 28 174 28 459 0 266 -3 315 -23
430 -124 710 -470 1302 -1014 1736 -381 303 -820 494 -1313 571 -147 22 -542
33 -680 18z m725 -1059 l0 -139 -97 -4 c-81 -3 -106 -8 -143 -28 -51 -29 -105
-95 -120 -148 -6 -25 -10 -462 -10 -1304 l0 -1268 410 0 c447 0 453 1 513 58
54 51 60 74 62 237 1 135 4 157 26 216 36 93 109 192 183 246 33 25 67 48 74
51 8 3 51 -32 102 -83 l89 -88 -33 -39 c-100 -117 -139 -277 -101 -423 23 -85
62 -150 133 -221 l63 -63 -2 -118 c-1 -65 -4 -139 -7 -165 l-4 -48 -1364 0
-1364 0 0 179 0 179 93 4 c104 5 150 22 203 76 69 71 65 -16 62 1353 l-3 1236
-30 49 c-19 30 -49 60 -79 79 -44 26 -61 31 -145 35 l-96 5 -3 124 c-1 69 0
131 2 138 4 11 155 13 796 13 l790 0 0 -139z"/>
<path d="M10416 7300 c-95 -15 -243 -58 -361 -105 -255 -101 -504 -101 -623 1
-23 19 -42 31 -42 26 0 -20 80 -130 124 -170 26 -24 73 -56 104 -70 51 -24 68
-27 167 -27 93 1 121 5 182 26 l71 26 34 -33 33 -34 -3 100 c-4 110 -8 101 65
124 33 11 50 -53 34 -130 -21 -109 -11 -139 37 -105 34 24 116 142 133 190 11
32 38 41 68 22 29 -19 -24 -144 -90 -216 -44 -47 -115 -81 -150 -72 -40 11
-169 -68 -169 -103 0 -70 185 -41 373 58 l89 47 33 -39 c19 -21 49 -67 67
-102 29 -57 37 -66 73 -75 66 -17 157 -61 210 -100 56 -41 113 -63 138 -53 10
3 17 8 17 11 0 2 -31 48 -69 101 -114 161 -158 270 -200 497 -12 61 -29 121
-39 135 -44 61 -172 91 -306 70z"/>
<path d="M11111 6342 c-15 -27 -70 -38 -130 -24 -25 6 -48 8 -50 6 -8 -8 93
-105 136 -130 78 -47 143 -54 157 -17 8 20 -33 108 -71 153 -30 34 -30 34 -42
12z"/>
<path d="M11175 5992 c103 -101 173 -139 202 -109 14 14 15 22 5 54 -18 62
-33 76 -64 64 -34 -13 -94 4 -175 49 l-58 31 90 -89z"/>
<path d="M10047 5664 c-12 -13 5 -25 106 -72 56 -27 127 -65 157 -84 138 -90
479 -374 479 -400 1 -10 -1 -18 -3 -18 -2 0 -62 39 -133 87 -214 144 -476 260
-673 297 -101 20 -141 20 -165 2 -17 -12 -16 -14 16 -24 19 -6 72 -21 119 -32
154 -39 445 -175 650 -305 193 -123 185 -131 -52 -53 -460 149 -876 241 -903
199 -4 -7 -4 -15 -1 -18 3 -3 81 -20 173 -39 188 -37 436 -114 813 -254 135
-49 257 -90 272 -90 31 0 103 52 126 93 l17 27 -110 111 c-213 214 -464 408
-654 504 -116 58 -216 87 -234 69z"/>
<path d="M3102 2662 l-312 -347 45 -42 46 -42 316 351 317 351 -42 38 c-23 22
-45 39 -49 39 -4 0 -149 -157 -321 -348z"/>
<path d="M8432 2882 l-44 -38 297 -354 c164 -195 300 -358 304 -362 5 -6 202
151 255 202 5 6 -6 25 -26 49 l-36 39 -77 -64 c-42 -35 -80 -64 -84 -64 -3 0
-125 142 -270 315 -145 173 -266 315 -270 315 -3 0 -26 -18 -49 -38z"/>
<path d="M3542 2752 c-38 -53 -160 -227 -271 -386 l-202 -289 28 -23 c34 -28
72 -49 77 -43 29 32 221 319 293 438 52 86 96 158 99 160 2 2 -23 -77 -56
-175 -33 -99 -86 -261 -119 -362 l-59 -183 45 -30 c38 -26 47 -29 58 -18 8 8
131 181 273 384 l260 370 -27 22 c-14 12 -37 28 -51 36 -25 15 -25 15 -123
-127 -54 -77 -141 -213 -193 -301 -53 -88 -92 -149 -88 -135 11 42 216 675
220 682 2 3 -18 22 -46 42 l-49 36 -69 -98z"/>
<path d="M8138 2667 c-21 -12 -38 -26 -38 -31 0 -9 329 -887 336 -894 3 -5 92
47 98 57 2 3 -11 44 -30 90 -19 46 -34 85 -32 86 2 2 37 26 79 53 l77 50 63
-64 c35 -35 67 -64 72 -64 5 0 29 14 54 31 l45 32 -338 338 c-187 187 -341
339 -344 339 -3 -1 -22 -11 -42 -23z m193 -264 c46 -54 114 -131 152 -172 37
-41 67 -77 67 -81 0 -13 -112 -82 -120 -73 -6 6 -162 350 -187 411 -11 26 7 9
88 -85z"/>
<path d="M3982 2525 l-22 -45 53 -29 c28 -17 57 -34 63 -38 7 -5 -53 -128
-183 -372 l-195 -364 24 -18 c35 -27 78 -43 87 -33 5 5 93 169 196 364 104
195 189 356 191 358 1 2 29 -10 63 -27 33 -17 62 -31 63 -31 7 0 52 89 48 93
-13 10 -352 187 -358 187 -5 0 -18 -20 -30 -45z"/>
<path d="M7827 2478 c-39 -17 -46 -24 -41 -41 16 -52 159 -337 233 -465 45
-79 81 -145 79 -147 -3 -2 -392 425 -469 515 l-26 31 -56 -25 -56 -24 195
-419 c108 -230 200 -422 205 -427 9 -10 109 31 109 44 0 4 -32 76 -72 161 -65
138 -101 208 -215 419 -20 36 -31 61 -26 55 6 -5 110 -122 233 -260 122 -137
232 -260 244 -272 l21 -23 52 25 52 24 -76 163 c-42 90 -131 280 -197 422 -67
143 -125 260 -131 262 -5 1 -31 -7 -58 -18z"/>
<path d="M4260 1933 c-95 -235 -174 -432 -177 -439 -3 -10 67 -41 294 -131 8
-3 21 14 33 42 11 26 20 48 20 50 0 2 -43 20 -95 41 -52 20 -95 41 -95 46 0
19 113 288 121 288 5 0 42 -13 84 -30 42 -17 78 -30 81 -30 6 0 46 91 42 96
-2 1 -39 17 -83 34 -44 17 -82 33 -84 35 -3 4 97 263 105 274 2 2 44 -13 94
-33 49 -20 94 -36 99 -36 9 0 46 89 40 95 -4 3 -86 36 -261 105 l-46 19 -172
-426z"/>
<path d="M7163 2216 c-60 -19 -98 -50 -122 -99 -46 -96 -35 -222 40 -449 97
-295 207 -412 355 -379 186 42 217 208 103 552 -70 212 -144 329 -234 370 -47
22 -84 23 -142 5z m104 -125 c40 -25 100 -142 148 -292 82 -253 85 -360 12
-390 -73 -30 -141 59 -216 286 -84 251 -92 372 -27 403 31 16 47 14 83 -7z"/>
<path d="M4810 2206 c0 -2 -54 -206 -120 -452 -66 -246 -117 -451 -112 -455
17 -15 104 -32 110 -21 4 5 31 103 61 216 30 113 57 204 59 201 3 -3 15 -110
26 -238 l21 -232 58 -18 c32 -11 61 -17 63 -14 5 4 -26 333 -41 445 -6 41 -6
42 24 42 66 0 140 101 167 229 31 148 -16 218 -176 264 -109 31 -140 38 -140
33z m164 -161 c20 -19 26 -33 26 -68 0 -95 -55 -203 -105 -208 -42 -3 -65 1
-65 14 0 6 16 74 37 150 33 123 39 137 58 137 12 0 34 -11 49 -25z"/>
<path d="M6755 2103 c-16 -3 -34 -8 -39 -13 -5 -5 30 -207 80 -465 l89 -457
55 7 c30 4 58 10 61 13 3 4 -31 198 -77 432 -45 234 -85 440 -89 458 -6 34
-10 35 -80 25z"/>
<path d="M5290 2083 c0 -4 -29 -215 -65 -467 -35 -253 -64 -461 -62 -462 1 -1
29 -4 62 -6 l59 -3 22 155 c18 120 46 401 55 540 0 8 27 -151 59 -353 32 -203
60 -371 63 -373 2 -3 28 -9 57 -13 36 -6 53 -5 55 3 10 32 128 916 123 921
-10 10 -118 18 -118 9 0 -5 -11 -88 -24 -184 -14 -96 -27 -240 -31 -320 -4
-80 -9 -154 -12 -165 -4 -11 -32 141 -64 339 -32 197 -61 362 -66 366 -12 11
-113 22 -113 13z"/>
<path d="M6367 2047 l-167 -20 6 -51 c4 -28 8 -53 10 -54 1 -2 34 0 73 5 l71
9 5 -30 c7 -43 95 -769 95 -784 0 -13 55 -15 100 -3 l26 6 -50 407 c-27 225
-47 410 -44 413 3 3 23 8 44 11 83 11 84 12 84 48 0 56 -8 66 -49 65 -20 -1
-111 -11 -204 -22z"/>
<path d="M5862 1563 c-51 -257 -93 -471 -92 -475 0 -5 26 -8 59 -8 l59 0 7 48
c4 26 11 68 17 95 l10 47 93 0 93 0 11 -50 c6 -27 14 -68 17 -90 l7 -40 63 0
c35 0 64 3 64 8 -1 4 -49 214 -109 467 l-107 460 -50 3 -49 3 -93 -468z m183
43 c20 -121 38 -223 40 -227 5 -7 -135 -22 -143 -14 -3 2 5 78 17 167 34 252
44 314 47 303 2 -5 20 -109 39 -229z"/>
<path d="M5895 916 c-55 -25 -109 -80 -133 -135 -9 -21 -15 -64 -15 -102 0
-155 128 -270 283 -256 72 6 128 35 174 88 68 81 84 195 38 286 -24 47 -91
109 -138 129 -53 22 -151 18 -209 -10z m176 -38 c86 -29 140 -102 140 -190 0
-29 -5 -66 -11 -83 -13 -35 -64 -91 -100 -110 -132 -67 -299 34 -300 183 -1
141 140 245 271 200z"/>
<path d="M5960 843 c-48 -9 -50 -17 -50 -164 l0 -139 30 0 30 0 0 61 c0 57 1
60 22 57 16 -2 30 -19 50 -60 25 -52 31 -58 58 -58 16 0 30 2 30 5 0 3 -14 33
-31 66 l-30 61 20 22 c23 24 28 75 10 108 -12 21 -68 49 -96 47 -10 -1 -29 -4
-43 -6z"/>
</g>
</svg>
